<svg width="15" height="17" viewBox="0 0 15 17" fill="none" xmlns="http://www.w3.org/2000/svg">
<path d="M2.90809 5.01002C3.92449 4.59873 4.46823 3.46918 4.05533 2.44877C3.64362 1.43237 0.879742 -0.00012207 0.879742 -0.00012207C0.879742 -0.00012207 -0.112283 2.95301 0.299146 3.96914C0.712187 4.98969 1.88874 5.42268 2.90809 5.00988V5.01002Z" fill="white"/>
<path d="M7.16469 11.0288C7.16469 11.0288 6.14442 13.9035 6.55571 14.9196C6.96848 15.9389 8.14221 16.3742 9.1617 15.9614C10.181 15.5488 10.7213 14.4196 10.3087 13.4003C9.89723 12.3839 7.16469 11.0287 7.16469 11.0287V11.0288Z" fill="white"/>
<path d="M0.78 9.87964C0.78 9.87964 -0.339356 12.976 0.103785 14.0707C0.548024 15.1681 1.83747 15.6474 2.93502 15.2029C4.02962 14.7598 4.54271 13.5512 4.09833 12.4535C3.65488 11.3591 0.78 9.87971 0.78 9.87971V9.87964Z" fill="white"/>
<path d="M7.14021 8.94156C7.76513 8.68857 8.01342 7.95183 7.79163 7.40405C7.53743 6.77607 5.93621 5.96765 5.93621 5.96765C5.93621 5.96765 5.34759 7.66267 5.60179 8.29092C5.82357 8.83843 6.51344 9.19534 7.14021 8.94156H7.14021Z" fill="white"/>
<path d="M13.275 8.68128C13.0208 8.0533 11.4196 7.24487 11.4196 7.24487C11.4196 7.24487 10.831 8.93989 11.0852 9.56815C11.307 10.1158 11.997 10.4727 12.6236 10.219C13.2486 9.96577 13.4971 9.22903 13.275 8.68124L13.275 8.68128Z" fill="white"/>
<path d="M12.0523 2.63637C11.6409 1.62011 8.87682 0.187622 8.87682 0.187622C8.87682 0.187622 7.88479 3.14074 8.29622 4.15687C8.7094 5.17741 9.88596 5.61013 10.9052 5.1975C11.9213 4.78635 12.4653 3.65705 12.0523 2.63627V2.63637Z" fill="white"/>
<path d="M14.8014 14.7413C14.5472 14.1134 12.946 13.3049 12.946 13.3049C12.946 13.3049 12.3574 15 12.6116 15.6282C12.8333 16.1759 13.5232 16.5328 14.15 16.2789C14.7748 16.0259 15.0232 15.2891 14.8014 14.7413H14.8014Z" fill="white"/>
</svg>
