<svg width="19" height="18" viewBox="0 0 19 18" fill="none" xmlns="http://www.w3.org/2000/svg">
<path d="M1.43287 7.37572H9.11012C10.0389 7.38242 10.9376 7.04585 11.6335 6.4306C12.3294 5.81535 12.7736 4.96475 12.8809 4.04212C12.9843 3.00591 12.6409 1.97466 11.9367 1.20739C11.2376 0.439832 10.248 0.0016265 9.20979 -0.00012207H7.13818C6.80496 -0.00012207 6.49707 0.177735 6.33044 0.466232C6.16383 0.754849 6.16383 1.11043 6.33044 1.39904C6.49705 1.68753 6.80496 1.8654 7.13818 1.8654H9.20979C9.73477 1.86607 10.2341 2.09307 10.58 2.48802C10.9258 2.88299 11.0849 3.40784 11.0164 3.92843C10.9477 4.37507 10.7192 4.78156 10.3732 5.07231C10.0274 5.3632 9.58775 5.51843 9.136 5.50945H1.4327C1.09948 5.50945 0.791592 5.68717 0.624964 5.9758C0.458335 6.26443 0.458356 6.61986 0.624964 6.90848C0.791571 7.19709 1.09948 7.37483 1.4327 7.37483L1.43287 7.37572Z" fill="white"/>
<path d="M18.4833 13.5294C18.376 12.6067 17.9319 11.7563 17.2361 11.1412C16.5402 10.5259 15.6418 10.1892 14.713 10.1958H8.29988C7.96666 10.1958 7.65877 10.3735 7.49214 10.6621C7.32554 10.9507 7.32554 11.3063 7.49214 11.5948C7.65875 11.8834 7.96666 12.0612 8.29988 12.0612H14.7384C15.1901 12.0522 15.6298 12.2075 15.9756 12.4983C16.3216 12.7892 16.5501 13.1957 16.6188 13.6422C16.6873 14.1628 16.5284 14.6876 16.1824 15.0826C15.8365 15.4776 15.3372 15.7045 14.8122 15.7053H12.7398C12.4066 15.7053 12.0987 15.8831 11.932 16.1717C11.7654 16.4602 11.7654 16.8157 11.932 17.1044C12.0986 17.393 12.4066 17.5707 12.7398 17.5707H14.8113C15.8499 17.5698 16.8403 17.1318 17.5398 16.3642C18.2437 15.5968 18.5868 14.5655 18.483 13.5294L18.4833 13.5294Z" fill="white"/>
<path d="M6.24479 11.1293C6.24466 10.8818 6.14635 10.6446 5.97157 10.4696C5.79666 10.2945 5.55946 10.1959 5.31212 10.1957H1.43269C1.09948 10.1957 0.791585 10.3734 0.624956 10.662C0.458348 10.9506 0.458348 11.3062 0.624956 11.5947C0.791564 11.8833 1.09947 12.0611 1.43269 12.0611H5.31212C5.55922 12.0608 5.79613 11.9625 5.97092 11.7878C6.14571 11.6132 6.24427 11.3764 6.24481 11.1293L6.24479 11.1293Z" fill="white"/>
<path d="M13.2052 7.97815C13.2848 7.97815 13.3611 7.94654 13.4173 7.89029L14.0495 7.25813H14.0494C14.9182 7.43036 15.8143 7.14134 16.4188 6.49407C17.0234 5.84679 17.2505 4.93314 17.0194 4.07812C16.9918 3.9742 16.9106 3.89303 16.8067 3.86544C15.9517 3.63442 15.038 3.86156 14.3907 4.46599C13.7435 5.07056 13.4544 5.96668 13.6267 6.83545L12.9931 7.46573C12.9074 7.55157 12.8817 7.68055 12.9281 7.79265C12.9746 7.90474 13.0839 7.97774 13.2052 7.97787L13.2052 7.97815Z" fill="white"/>
<path d="M6.7314 13.3242L6.09923 12.6921C5.98151 12.5784 5.79441 12.5801 5.67868 12.6958C5.56295 12.8115 5.56135 12.9986 5.67506 13.1164L6.30682 13.7485V13.7484C6.14409 14.5851 6.40579 15.4478 7.00581 16.0531C7.62978 16.6705 9.02453 17.1948 9.6998 16.5031H9.69993C9.93069 15.6483 9.70368 14.7351 9.09965 14.0879C8.4955 13.4407 7.59991 13.1515 6.73138 13.3231L6.7314 13.3242Z" fill="white"/>
</svg>
